<svg width="611" height="535" xmlns="http://www.w3.org/2000/svg" xmlns:xlink="http://www.w3.org/1999/xlink" overflow="hidden"><defs><clipPath id="clip0"><rect x="264" y="80" width="611" height="535"/></clipPath><clipPath id="clip1"><rect x="539" y="109" width="69" height="78"/></clipPath><clipPath id="clip2"><rect x="539" y="109" width="69" height="78"/></clipPath><clipPath id="clip3"><rect x="539" y="109" width="69" height="78"/></clipPath><clipPath id="clip4"><rect x="470" y="212" width="69" height="78"/></clipPath><clipPath id="clip5"><rect x="470" y="212" width="69" height="78"/></clipPath><clipPath id="clip6"><rect x="470" y="212" width="69" height="78"/></clipPath><clipPath id="clip7"><rect x="608" y="212" width="68" height="78"/></clipPath><clipPath id="clip8"><rect x="608" y="212" width="68" height="78"/></clipPath><clipPath id="clip9"><rect x="608" y="212" width="68" height="78"/></clipPath><clipPath id="clip10"><rect x="539" y="516" width="69" height="78"/></clipPath><clipPath id="clip11"><rect x="539" y="516" width="69" height="78"/></clipPath><clipPath id="clip12"><rect x="539" y="516" width="69" height="78"/></clipPath><clipPath id="clip13"><rect x="470" y="413" width="69" height="77"/></clipPath><clipPath id="clip14"><rect x="470" y="413" width="69" height="77"/></clipPath><clipPath id="clip15"><rect x="470" y="413" width="69" height="77"/></clipPath><clipPath id="clip16"><rect x="608" y="413" width="68" height="77"/></clipPath><clipPath id="clip17"><rect x="608" y="413" width="68" height="77"/></clipPath><clipPath id="clip18"><rect x="608" y="413" width="68" height="77"/></clipPath></defs><g clip-path="url(#clip0)" transform="translate(-264 -80)"><g clip-path="url(#clip1)"><g clip-path="url(#clip2)"><g clip-path="url(#clip3)"><path d="M34.4589 0 68.9178 19.4911 68.9178 58.4822 34.4589 77.9733 0 58.4822 0 19.4911Z" fill="#FFFFFF" transform="matrix(1.00119 0 0 1 539 109.013)"/><path d="M62.7651 57.1377 35.5986 72.5062 35.5986 60.539 52.5253 51.2253 62.7651 57.1377ZM64.626 55.4548 64.626 23.3199 54.689 29.063 54.689 49.7206 64.626 55.4548ZM6.04589 57.1377 33.2123 72.5062 33.2123 60.539 16.2767 51.2253 6.04589 57.1377ZM4.18493 55.4548 4.18493 23.3199 14.1219 29.063 14.1219 49.7206 4.18493 55.4548ZM5.35137 21.2363 33.2123 5.47603 33.2123 17.0425 15.3596 26.8637 15.2171 26.9438 5.35137 21.2363ZM63.4596 21.2363 35.5986 5.47603 35.5986 17.0425 53.4514 26.8548 53.5938 26.9349 63.4596 21.2363Z" fill="#8ED6FB" transform="matrix(1.00119 0 0 1 539 109.013)"/><path d="M33.2123 57.8144 16.5082 48.6253 16.5082 30.4342 33.2123 40.0774 33.2123 57.8144ZM35.5986 57.8144 52.3027 48.6343 52.3027 30.4342 35.5986 40.0774 35.5986 57.8144ZM17.639 28.3329 34.4055 19.1171 51.1719 28.3329 34.4055 38.0116 17.639 28.3329Z" fill="#1C78C0" transform="matrix(1.00119 0 0 1 539 109.013)"/></g></g></g><path d="M0.162281-0.291163 30.1903 16.4451 29.8658 17.0274-0.162281 0.291163ZM30.8108 12.5931 35.8513 19.9818 26.916 19.5811Z" fill="#4472C4" transform="matrix(-1 0 0 1 541.351 192.5)"/><text font-family="Calibri,Calibri_MSFontService,sans-serif" font-weight="400" font-size="13" transform="translate(550.017 196)">common</text><g clip-path="url(#clip4)"><g clip-path="url(#clip5)"><g clip-path="url(#clip6)"><path d="M34.4589 0 68.9178 19.4911 68.9178 58.4822 34.4589 77.9733 0 58.4822 0 19.4911Z" fill="#FFFFFF" transform="matrix(1.00119 0 0 1 470 212.013)"/><path d="M62.7651 57.1377 35.5986 72.5062 35.5986 60.539 52.5253 51.2253 62.7651 57.1377ZM64.626 55.4548 64.626 23.3199 54.689 29.063 54.689 49.7206 64.626 55.4548ZM6.04589 57.1377 33.2123 72.5062 33.2123 60.539 16.2767 51.2253 6.04589 57.1377ZM4.18493 55.4548 4.18493 23.3199 14.1219 29.063 14.1219 49.7206 4.18493 55.4548ZM5.35137 21.2363 33.2123 5.47603 33.2123 17.0425 15.3596 26.8637 15.2171 26.9438 5.35137 21.2363ZM63.4596 21.2363 35.5986 5.47603 35.5986 17.0425 53.4514 26.8548 53.5938 26.9349 63.4596 21.2363Z" fill="#8ED6FB" transform="matrix(1.00119 0 0 1 470 212.013)"/><path d="M33.2123 57.8144 16.5082 48.6253 16.5082 30.4342 33.2123 40.0774 33.2123 57.8144ZM35.5986 57.8144 52.3027 48.6343 52.3027 30.4342 35.5986 40.0774 35.5986 57.8144ZM17.639 28.3329 34.4055 19.1171 51.1719 28.3329 34.4055 38.0116 17.639 28.3329Z" fill="#1C78C0" transform="matrix(1.00119 0 0 1 470 212.013)"/></g></g></g><text font-family="Calibri,Calibri_MSFontService,sans-serif" font-weight="400" font-size="13" transform="translate(494.543 298)">dev</text><g clip-path="url(#clip7)"><g clip-path="url(#clip8)"><g clip-path="url(#clip9)"><path d="M34 0 68 19.2315 68 57.7034 34 76.9349 0 57.7034 0 19.2315Z" fill="#FFFFFF" transform="matrix(1 0 0 1.0135 608 212.013)"/><path d="M61.9292 56.3767 35.1245 71.5406 35.1245 59.7328 51.8258 50.5431 61.9292 56.3767ZM63.7654 54.7163 63.7654 23.0093 53.9607 28.676 53.9607 49.0584 63.7654 54.7163ZM5.96537 56.3767 32.77 71.5406 32.77 59.7328 16.0599 50.5431 5.96537 56.3767ZM4.1292 54.7163 4.1292 23.0093 13.9339 28.676 13.9339 49.0584 4.1292 54.7163ZM5.2801 20.9535 32.77 5.4031 32.77 16.8155 15.155 26.5059 15.0145 26.585 5.2801 20.9535ZM62.6145 20.9535 35.1245 5.4031 35.1245 16.8155 52.7395 26.4972 52.8801 26.5762 62.6145 20.9535Z" fill="#8ED6FB" transform="matrix(1 0 0 1.0135 608 212.013)"/><path d="M32.77 57.0444 16.2884 47.9778 16.2884 30.0289 32.77 39.5437 32.77 57.0444ZM35.1245 57.0444 51.6062 47.9866 51.6062 30.0289 35.1245 39.5437 35.1245 57.0444ZM17.4041 27.9556 33.9473 18.8625 50.4904 27.9556 33.9473 37.5054 17.4041 27.9556Z" fill="#1C78C0" transform="matrix(1 0 0 1.0135 608 212.013)"/></g></g></g><text font-family="Calibri,Calibri_MSFontService,sans-serif" font-weight="400" font-size="13" transform="translate(629.984 298)">prod</text><path d="M608.67 192.213 636.721 208.802 636.382 209.375 608.33 192.787ZM637.44 204.967 642.29 212.482 633.368 211.853Z" fill="#4472C4"/><rect x="450.5" y="143.25" width="185.25" height="185.25" fill="#E7E6E6" fill-opacity="0.160784"/><path d="M635.75 143.25 697.5 81.5001 697.5 266.75 635.75 328.5Z" fill="#BAB9B9" fill-rule="evenodd" fill-opacity="0.160784"/><path d="M450.5 143.25 512.25 81.5001 697.5 81.5001 635.75 143.25Z" fill="#ECEBEB" fill-rule="evenodd" fill-opacity="0.160784"/><path d="M450.5 143.25 512.25 81.5001 697.5 81.5001 697.5 266.75 635.75 328.5 450.5 328.5ZM450.5 143.25 635.75 143.25 697.5 81.5001M635.75 143.25 635.75 328.5" stroke="#2F528F" stroke-width="1.33333" stroke-miterlimit="8" stroke-opacity="0.258824" fill="none" fill-rule="evenodd"/><g clip-path="url(#clip10)"><g clip-path="url(#clip11)"><g clip-path="url(#clip12)"><path d="M34.4589 0 68.9178 19.4911 68.9178 58.4822 34.4589 77.9733 0 58.4822 0 19.4911Z" fill="#FFFFFF" transform="matrix(1.00119 0 0 1 539 516.013)"/><path d="M62.7651 57.1377 35.5986 72.5062 35.5986 60.539 52.5253 51.2253 62.7651 57.1377ZM64.626 55.4548 64.626 23.3199 54.689 29.063 54.689 49.7206 64.626 55.4548ZM6.04589 57.1377 33.2123 72.5062 33.2123 60.539 16.2767 51.2253 6.04589 57.1377ZM4.18493 55.4548 4.18493 23.3199 14.1219 29.063 14.1219 49.7206 4.18493 55.4548ZM5.35137 21.2363 33.2123 5.47603 33.2123 17.0425 15.3596 26.8637 15.2171 26.9438 5.35137 21.2363ZM63.4596 21.2363 35.5986 5.47603 35.5986 17.0425 53.4514 26.8548 53.5938 26.9349 63.4596 21.2363Z" fill="#8ED6FB" transform="matrix(1.00119 0 0 1 539 516.013)"/><path d="M33.2123 57.8144 16.5082 48.6253 16.5082 30.4342 33.2123 40.0774 33.2123 57.8144ZM35.5986 57.8144 52.3027 48.6343 52.3027 30.4342 35.5986 40.0774 35.5986 57.8144ZM17.639 28.3329 34.4055 19.1171 51.1719 28.3329 34.4055 38.0116 17.639 28.3329Z" fill="#1C78C0" transform="matrix(1.00119 0 0 1 539 516.013)"/></g></g></g><path d="M541.209 507.678 511.39 493.641 511.674 493.038 541.493 507.074ZM511.035 497.526 505.5 490.5 514.442 490.288Z" fill="#4472C4"/><text font-family="Calibri,Calibri_MSFontService,sans-serif" font-weight="400" font-size="13" transform="translate(550.017 511)">common</text><g clip-path="url(#clip13)"><g clip-path="url(#clip14)"><g clip-path="url(#clip15)"><path d="M34.0171 0 68.0342 19.2412 68.0342 57.7324 34.0171 76.9736 0 57.7324 0 19.2412Z" fill="#FFFFFF" transform="matrix(1.0142 0 0 1 470 413.013)"/><path d="M61.9604 56.4051 35.1422 71.5766 35.1422 59.7629 51.8519 50.5686 61.9604 56.4051ZM63.7975 54.7438 63.7975 23.0209 53.9879 28.6904 53.9879 49.0831 63.7975 54.7438ZM5.96838 56.4051 32.7865 71.5766 32.7865 59.7629 16.068 50.5686 5.96838 56.4051ZM4.13128 54.7438 4.13128 23.0209 13.9409 28.6904 13.9409 49.0831 4.13128 54.7438ZM5.28276 20.964 32.7865 5.40582 32.7865 16.824 15.1627 26.5193 15.022 26.5984 5.28276 20.964ZM62.646 20.964 35.1422 5.40582 35.1422 16.824 52.7661 26.5105 52.9067 26.5896 62.646 20.964Z" fill="#8ED6FB" transform="matrix(1.0142 0 0 1 470 413.013)"/><path d="M32.7865 57.0732 16.2966 48.0019 16.2966 30.0441 32.7865 39.5636 32.7865 57.0732ZM35.1422 57.0732 51.6322 48.0107 51.6322 30.0441 35.1422 39.5636 35.1422 57.0732ZM17.4129 27.9696 33.9644 18.872 50.5159 27.9696 33.9644 37.5243 17.4129 27.9696Z" fill="#1C78C0" transform="matrix(1.0142 0 0 1 470 413.013)"/></g></g></g><text font-family="Calibri,Calibri_MSFontService,sans-serif" font-weight="400" font-size="13" transform="translate(494.543 408)">dev</text><g clip-path="url(#clip16)"><g clip-path="url(#clip17)"><g clip-path="url(#clip18)"><path d="M34 0 68 19.2315 68 57.7034 34 76.9349 0 57.7034 0 19.2315Z" fill="#FFFFFF" transform="matrix(1 0 0 1.0005 608 413.013)"/><path d="M61.9292 56.3767 35.1245 71.5406 35.1245 59.7328 51.8258 50.5431 61.9292 56.3767ZM63.7654 54.7163 63.7654 23.0093 53.9607 28.676 53.9607 49.0584 63.7654 54.7163ZM5.96537 56.3767 32.77 71.5406 32.77 59.7328 16.0599 50.5431 5.96537 56.3767ZM4.1292 54.7163 4.1292 23.0093 13.9339 28.676 13.9339 49.0584 4.1292 54.7163ZM5.2801 20.9535 32.77 5.4031 32.77 16.8155 15.155 26.5059 15.0145 26.585 5.2801 20.9535ZM62.6145 20.9535 35.1245 5.4031 35.1245 16.8155 52.7395 26.4972 52.8801 26.5762 62.6145 20.9535Z" fill="#8ED6FB" transform="matrix(1 0 0 1.0005 608 413.013)"/><path d="M32.77 57.0444 16.2884 47.9778 16.2884 30.0289 32.77 39.5437 32.77 57.0444ZM35.1245 57.0444 51.6062 47.9866 51.6062 30.0289 35.1245 39.5437 35.1245 57.0444ZM17.4041 27.9556 33.9473 18.8625 50.4904 27.9556 33.9473 37.5054 17.4041 27.9556Z" fill="#1C78C0" transform="matrix(1 0 0 1.0005 608 413.013)"/></g></g></g><text font-family="Calibri,Calibri_MSFontService,sans-serif" font-weight="400" font-size="13" transform="translate(629.984 408)">prod</text><path d="M0.148937-0.29821 27.9749 13.5991 27.677 14.1955-0.148937 0.29821ZM28.4203 9.72302 33.7901 16.876 24.8459 16.88Z" fill="#4472C4" transform="matrix(1 0 0 -1 608.5 507.376)"/><rect x="450.5" y="429.25" width="185.25" height="185.25" fill="#E7E6E6" fill-opacity="0.160784"/><path d="M635.75 429.25 697.5 367.5 697.5 552.75 635.75 614.5Z" fill="#BAB9B9" fill-rule="evenodd" fill-opacity="0.160784"/><path d="M450.5 429.25 512.25 367.5 697.5 367.5 635.75 429.25Z" fill="#ECEBEB" fill-rule="evenodd" fill-opacity="0.160784"/><path d="M450.5 429.25 512.25 367.5 697.5 367.5 697.5 552.75 635.75 614.5 450.5 614.5ZM450.5 429.25 635.75 429.25 697.5 367.5M635.75 429.25 635.75 614.5" stroke="#2F528F" stroke-width="1.33333" stroke-miterlimit="8" stroke-opacity="0.258824" fill="none" fill-rule="evenodd"/><path d="M465.167 452.518 423.5 452.518 423.5 251.167 463.833 251.167 463.833 251.833 423.833 251.833 424.167 251.5 424.167 452.185 423.833 451.852 465.167 451.852ZM463.833 448.185 471.833 452.185 463.833 456.185ZM462.5 247.5 470.5 251.5 462.5 255.5Z" fill="#4472C4"/><path d="M6.66667-0.333333 43.6667-0.333333 43.6667 201.018 8 201.018 8 200.351 43.3333 200.351 43 200.685 43 0 43.3333 0.333333 6.66667 0.333333ZM8 4 0 0 8-4ZM9.33333 204.685 1.33333 200.685 9.33333 196.685Z" fill="#4472C4" transform="matrix(1 0 0 -1 676.5 452.185)"/><path d="M330.5 127.667C330.5 123.709 333.709 120.5 337.667 120.5L402.333 120.5C406.291 120.5 409.5 123.709 409.5 127.667L409.5 156.333C409.5 160.291 406.291 163.5 402.333 163.5L337.667 163.5C333.709 163.5 330.5 160.291 330.5 156.333Z" stroke="#AFABAB" stroke-width="1.33333" stroke-miterlimit="8" fill="#DEEBF7" fill-rule="evenodd"/><text fill="#767171" font-family="Calibri,Calibri_MSFontService,sans-serif" font-weight="400" font-size="12" transform="translate(354.927 145)">Portal</text><path d="M409.5 141.167 450.506 141.167 450.506 141.833 409.5 141.833ZM409.5 144.167C408.027 144.167 406.833 142.973 406.833 141.5 406.833 140.027 408.027 138.833 409.5 138.833 410.973 138.833 412.167 140.027 412.167 141.5 412.167 142.973 410.973 144.167 409.5 144.167ZM450.506 138.833C451.979 138.833 453.173 140.027 453.173 141.5 453.173 142.973 451.979 144.167 450.506 144.167 449.033 144.167 447.839 142.973 447.839 141.5 447.839 140.027 449.033 138.833 450.506 138.833Z" fill="#7F7F7F"/><path d="M736.5 538.667C736.5 534.709 739.709 531.5 743.667 531.5L808.333 531.5C812.291 531.5 815.5 534.709 815.5 538.667L815.5 567.333C815.5 571.291 812.291 574.5 808.333 574.5L743.667 574.5C739.709 574.5 736.5 571.291 736.5 567.333Z" stroke="#AFABAB" stroke-width="1.33333" stroke-miterlimit="8" fill="#DEEBF7" fill-rule="evenodd"/><text fill="#767171" font-family="Calibri,Calibri_MSFontService,sans-serif" font-weight="400" font-size="12" transform="translate(761.037 549)">Micro <tspan font-size="12" x="-8.16669" y="15">Frontend</tspan></text><path d="M8.91437e-07-0.333333 39.2575-0.333228 39.2575 0.333438-8.91437e-07 0.333333ZM-7.1315e-06 2.66667C-1.47277 2.66666-2.66667 1.47275-2.66667-7.1315e-06-2.66666-1.47277-1.47275-2.66667 7.1315e-06-2.66667 1.47277-2.66666 2.66667-1.47275 2.66667 7.1315e-06 2.66666 1.47277 1.47275 2.66667-7.1315e-06 2.66667ZM39.2575-2.66656C40.7303-2.66656 41.9242-1.47265 41.9242 0.000112118 41.9242 1.47287 40.7303 2.66678 39.2575 2.66677 37.7848 2.66677 36.5909 1.47286 36.5909 9.78554e-05 36.5909-1.47266 37.7848-2.66657 39.2575-2.66656Z" fill="#7F7F7F" transform="matrix(-1 0 0 1 736.758 552.5)"/><path d="M754.5 323.667C754.5 319.709 757.709 316.5 761.667 316.5L867.333 316.5C871.291 316.5 874.5 319.709 874.5 323.667L874.5 352.333C874.5 356.291 871.291 359.5 867.333 359.5L761.667 359.5C757.709 359.5 754.5 356.291 754.5 352.333Z" stroke="#AFABAB" stroke-width="1.33333" stroke-miterlimit="8" fill="#DEEBF7" fill-rule="evenodd"/><text fill="#767171" font-family="Calibri,Calibri_MSFontService,sans-serif" font-weight="400" font-size="12" transform="translate(767.047 334)">Module <tspan font-size="12" x="40.8333" y="0">Federation</tspan><tspan font-size="12" x="25.1667" y="15">FQDN:80</tspan></text><path d="M9.97861e-07-0.333333 35.0707-0.333228 35.0707 0.333438-9.97861e-07 0.333333ZM-7.98288e-06 2.66667C-1.47277 2.66666-2.66667 1.47275-2.66667-7.98288e-06-2.66666-1.47277-1.47275-2.66667 7.98288e-06-2.66667 1.47277-2.66666 2.66667-1.47275 2.66667 7.98288e-06 2.66666 1.47277 1.47275 2.66667-7.98288e-06 2.66667ZM35.0707-2.66656C36.5434-2.66656 37.7373-1.47265 37.7373 0.00011297 37.7373 1.47287 36.5434 2.66678 35.0706 2.66677 33.5979 2.66677 32.404 1.47286 32.404 9.7004e-05 32.404-1.47266 33.5979-2.66657 35.0707-2.66656Z" fill="#7F7F7F" transform="matrix(-1 0 0 1 754.571 338.5)"/><text font-family="Calibri,Calibri_MSFontService,sans-serif" font-weight="400" font-size="12" transform="matrix(-1.83697e-16 -1 1 -1.83697e-16 729.22 410)">EXPORT<tspan font-size="12" x="100" y="-0.00012207">IMPORT</tspan><tspan font-size="12" x="-5" y="-308.632">EXPORT</tspan><tspan font-size="12" x="95" y="-308.632">IMPORT</tspan></text><path d="M265.5 323.667C265.5 319.709 268.709 316.5 272.667 316.5L379.333 316.5C383.291 316.5 386.5 319.709 386.5 323.667L386.5 352.333C386.5 356.291 383.291 359.5 379.333 359.5L272.667 359.5C268.709 359.5 265.5 356.291 265.5 352.333Z" stroke="#AFABAB" stroke-width="1.33333" stroke-miterlimit="8" fill="#DEEBF7" fill-rule="evenodd"/><text fill="#767171" font-family="Calibri,Calibri_MSFontService,sans-serif" font-weight="400" font-size="12" transform="translate(278.428 334)">Module <tspan font-size="12" x="40.8333" y="0">Federation</tspan><tspan font-size="12" x="20.2533" y="15">localhost:n</tspan></text><path d="M8.76257e-07-0.333333 39.9376-0.333228 39.9376 0.333438-8.76257e-07 0.333333ZM-7.01006e-06 2.66667C-1.47277 2.66666-2.66667 1.47275-2.66667-7.01006e-06-2.66666-1.47277-1.47275-2.66667 7.01006e-06-2.66667 1.47277-2.66666 2.66667-1.47275 2.66667 7.01006e-06 2.66666 1.47277 1.47275 2.66667-7.01006e-06 2.66667ZM39.9376-2.66656C41.4104-2.66656 42.6043-1.47265 42.6043 0.000111997 42.6043 1.47287 41.4104 2.66678 39.9376 2.66677 38.4649 2.66677 37.271 1.47286 37.271 9.79768e-05 37.271-1.47266 38.4649-2.66657 39.9376-2.66656Z" fill="#7F7F7F" transform="matrix(-1 0 0 1 426.438 338.5)"/></g></svg>