<svg xmlns="http://www.w3.org/2000/svg" xmlns:xlink="http://www.w3.org/1999/xlink" viewBox="0 0 1600 1600"><defs><style>.cls-1{mask:url(#mask);filter:url(#luminosity-noclip-3);}.cls-2,.cls-4{mix-blend-mode:multiply;}.cls-2{fill:url(#Fade_To_White_3);}.cls-3{mask:url(#mask-2);filter:url(#luminosity-noclip-4);}.cls-4{fill:url(#Fade_To_White_3-2);}.cls-5{fill:#e1beb3;}.cls-6{fill:#d3b2ab;}.cls-7{fill:#e6e7e8;}.cls-8{fill:#ddd;}.cls-21,.cls-9{fill:#f1f2f2;}.cls-10,.cls-24{fill:#d6d6d6;}.cls-11{fill:#f2f2f2;}.cls-12{fill:#e0e0e0;}.cls-13{fill:#f7f7f7;}.cls-14{fill:#ededed;}.cls-15{fill:#979c9c;}.cls-16{fill:#fcb6ce;}.cls-17{fill:#f494b1;}.cls-18{fill:#888889;}.cls-19{fill:#fff;}.cls-20{mask:url(#mask-3);}.cls-21{opacity:0.8;}.cls-22{mask:url(#mask-4);}.cls-23{fill:#d1d3d4;}.cls-24{font-size:112.15px;font-family:OpenSans-Semibold, Open Sans;font-weight:700;}.cls-25{filter:url(#luminosity-noclip-2);}.cls-26{filter:url(#luminosity-noclip);}</style><filter id="luminosity-noclip" x="1234.9" y="-8992" width="94.8" height="32766" filterUnits="userSpaceOnUse" color-interpolation-filters="sRGB"><feFlood flood-color="#fff" result="bg"/><feBlend in="SourceGraphic" in2="bg"/></filter><mask id="mask" x="1234.9" y="-8992" width="94.8" height="32766" maskUnits="userSpaceOnUse"><g class="cls-26"/></mask><linearGradient id="Fade_To_White_3" x1="-4254.12" y1="1291.96" x2="-4254.12" y2="1087" gradientTransform="matrix(-1, 0, 0, 1, -2971.83, 0)" gradientUnits="userSpaceOnUse"><stop offset="0"/><stop offset="1" stop-color="#fff"/></linearGradient><filter id="luminosity-noclip-2" x="1174.78" y="-8992" width="30.07" height="32766" filterUnits="userSpaceOnUse" color-interpolation-filters="sRGB"><feFlood flood-color="#fff" result="bg"/><feBlend in="SourceGraphic" in2="bg"/></filter><mask id="mask-2" x="1174.78" y="-8992" width="30.07" height="32766" maskUnits="userSpaceOnUse"><g class="cls-25"/></mask><linearGradient id="Fade_To_White_3-2" x1="-4161.64" y1="1291.96" x2="-4161.64" y2="1087" xlink:href="#Fade_To_White_3"/><filter id="luminosity-noclip-3" x="1234.9" y="1001.52" width="94.8" height="259.62" filterUnits="userSpaceOnUse" color-interpolation-filters="sRGB"><feFlood flood-color="#fff" result="bg"/><feBlend in="SourceGraphic" in2="bg"/></filter><mask id="mask-3" x="1234.9" y="1001.52" width="94.8" height="259.62" maskUnits="userSpaceOnUse"><g class="cls-1"><rect id="_Path_" data-name="&lt;Path&gt;" class="cls-2" x="1234.9" y="1001.52" width="94.8" height="259.62"/></g></mask><filter id="luminosity-noclip-4" x="1174.78" y="1001.52" width="30.07" height="259.62" filterUnits="userSpaceOnUse" color-interpolation-filters="sRGB"><feFlood flood-color="#fff" result="bg"/><feBlend in="SourceGraphic" in2="bg"/></filter><mask id="mask-4" x="1174.78" y="1001.52" width="30.07" height="259.62" maskUnits="userSpaceOnUse"><g class="cls-3"><rect id="_Path_2" data-name="&lt;Path&gt;" class="cls-4" x="1174.78" y="1001.52" width="30.07" height="259.62"/></g></mask></defs><title>CATTLE_APR_18_EEZY_06</title><g id="BACKGROUND"><rect class="cls-5" width="1600" height="1600"/></g><g id="OBJECT"><path class="cls-6" d="M1202.9,464.88l-71.56-137.25a128.78,128.78,0,0,1-14.59-59.54V247.57a53.63,53.63,0,0,0,44.7-52.87h0a53.62,53.62,0,0,0-53.62-53.62H842.67A53.43,53.43,0,0,0,806.62,155a54.12,54.12,0,0,0-5.32,5.58q-1.64,2-3.09,4.13t-2.69,4.42q-1.24,2.28-2.26,4.69A53.45,53.45,0,0,0,789,194.7h0a53.48,53.48,0,0,0,4.21,20.87q1,2.41,2.26,4.69a53.86,53.86,0,0,0,13,15.82q2,1.64,4.13,3.09a53,53,0,0,0,20.44,8.3v20.82q0,1.93-.06,3.86-.12,3.85-.46,7.69-.17,1.92-.4,3.82-.69,5.72-1.88,11.36-.8,3.75-1.82,7.45a128.81,128.81,0,0,1-9.79,25L747.6,464.88a220.62,220.62,0,0,0-25,102v659.86A71.38,71.38,0,0,0,723,1234a70.08,70.08,0,0,0,1.07,7q.71,3.45,1.74,6.78a70.91,70.91,0,0,0,46.53,46.53q3.32,1,6.78,1.74a70.46,70.46,0,0,0,7,1.07,71.48,71.48,0,0,0,7.23.37h363.84a70.75,70.75,0,0,0,70.75-70.74V566.91A220.62,220.62,0,0,0,1202.9,464.88Z"/><path class="cls-6" d="M653.51,464.88,582,327.62a128.78,128.78,0,0,1-14.59-59.54V247.57a53.63,53.63,0,0,0,44.7-52.87h0a53.62,53.62,0,0,0-53.62-53.62H293.28A53.43,53.43,0,0,0,257.22,155a54.12,54.12,0,0,0-5.32,5.58q-1.64,2-3.09,4.13t-2.69,4.42q-1.24,2.28-2.26,4.69a53.45,53.45,0,0,0-4.21,20.87h0a53.48,53.48,0,0,0,4.21,20.87q1,2.41,2.26,4.69a53.86,53.86,0,0,0,13,15.82q2,1.64,4.13,3.09a53,53,0,0,0,20.44,8.3v20.82q0,1.93-.06,3.86-.12,3.85-.46,7.69-.17,1.92-.4,3.82-.69,5.72-1.88,11.36-.8,3.75-1.82,7.45a128.81,128.81,0,0,1-9.79,25L198.21,464.88a220.62,220.62,0,0,0-25,102v659.86a71.38,71.38,0,0,0,.37,7.23,70.1,70.1,0,0,0,1.07,7q.71,3.45,1.74,6.78a70.91,70.91,0,0,0,46.53,46.53q3.32,1,6.78,1.74a70.46,70.46,0,0,0,7,1.07,71.48,71.48,0,0,0,7.23.37H607.78a70.75,70.75,0,0,0,70.75-70.74V566.91A220.62,220.62,0,0,0,653.51,464.88Z"/><path id="_Path_3" data-name="&lt;Path&gt;" class="cls-7" d="M895,1451.83H819.21a18,18,0,0,1-18-18h0a18,18,0,0,1,18-18h162a18.31,18.31,0,0,0,18.38-16.41,18.05,18.05,0,0,0-18-19.69H888.22a18,18,0,0,1-18-18h0a18,18,0,0,1,18-18H1234.9a18.31,18.31,0,0,0,18.38-16.41,18.05,18.05,0,0,0-18-19.69H410.55a18.31,18.31,0,0,0-18.38,16.41,18.05,18.05,0,0,0,18,19.69H568.49A18.31,18.31,0,0,1,586.87,1360a18.05,18.05,0,0,1-18,19.69h-27A18.31,18.31,0,0,0,523.55,1396a18.05,18.05,0,0,0,18,19.69H654.45a18.31,18.31,0,0,1,18.38,16.41,18.05,18.05,0,0,1-18,19.69H605.94a18.31,18.31,0,0,0-18.38,16.41,18.05,18.05,0,0,0,18,19.69H895.43a18.05,18.05,0,0,0,18-19.69A18.31,18.31,0,0,0,895,1451.83Z"/><g id="_Group_" data-name="&lt;Group&gt;"><polygon id="_Path_4" data-name="&lt;Path&gt;" class="cls-8" points="877.69 536.11 567.13 536.11 567.49 365.28 877.69 536.11"/><polygon id="_Path_5" data-name="&lt;Path&gt;" class="cls-7" points="257.29 536.11 567.67 536.11 567.31 365.28 257.29 536.11"/><path id="_Path_6" data-name="&lt;Path&gt;" class="cls-9" d="M278.22,1326.52H856.76a20.93,20.93,0,0,0,20.93-20.93V536.09H257.29v769.5A20.93,20.93,0,0,0,278.22,1326.52Z"/><polygon id="_Path_7" data-name="&lt;Path&gt;" class="cls-9" points="877.69 536.11 567.49 398.12 567.49 365.28 877.69 503.27 877.69 536.11"/><path id="_Path_8" data-name="&lt;Path&gt;" class="cls-10" d="M877.69,536.11c-120.92-2.6-225.12-46.16-310.2-138Z"/><polygon id="_Path_9" data-name="&lt;Path&gt;" class="cls-11" points="257.29 536.11 567.49 398.12 567.49 365.28 257.29 503.27 257.29 536.11"/><polygon id="_Path_10" data-name="&lt;Path&gt;" class="cls-11" points="567.49 365.28 553.48 371.51 553.48 227.83 580.78 227.83 580.78 371.19 567.49 365.28"/><path id="_Path_11" data-name="&lt;Path&gt;" class="cls-12" d="M257.29,536.11c120.93-2.6,225.12-46.16,310.2-138Z"/><polygon id="_Path_12" data-name="&lt;Path&gt;" class="cls-7" points="567.49 365.28 553.48 359.89 553.48 371.51 567.49 365.28"/><polygon id="_Path_13" data-name="&lt;Path&gt;" class="cls-7" points="567.49 365.28 580.78 359.89 580.78 371.51 567.49 365.28"/><g id="_Group_2" data-name="&lt;Group&gt;"><rect id="_Path_14" data-name="&lt;Path&gt;" class="cls-8" x="310.18" y="702.44" width="514.62" height="561.73" rx="22.73" ry="22.73"/></g><path id="_Path_15" data-name="&lt;Path&gt;" class="cls-11" d="M669,410.44l124.06,55.12,16-35.95a12.9,12.9,0,0,0-6.55-17L702,367.94a12.9,12.9,0,0,0-17,6.55Z"/><path class="cls-7" d="M744.82,396.93a3.21,3.21,0,0,1,5.86,2.6l-13.62,30.65a3.21,3.21,0,0,1-5.86-2.6Z"/><path class="cls-7" d="M793.05,418.36a3.21,3.21,0,1,1,5.86,2.6l-13.62,30.65a3.21,3.21,0,1,1-5.86-2.6Z"/><path class="cls-7" d="M769.24,407.78a3.21,3.21,0,0,1,5.86,2.6L761.48,441a3.21,3.21,0,0,1-5.86-2.6Z"/><path class="cls-7" d="M683,406.15l13.62-30.65a3.21,3.21,0,0,1,5.86,2.6l-13.62,30.65a3.21,3.21,0,1,1-5.86-2.6Z"/><path class="cls-7" d="M721,386.35a3.21,3.21,0,1,1,5.86,2.6L713.25,419.6a3.21,3.21,0,0,1-5.86-2.6Z"/><rect class="cls-10" x="729.86" y="368.29" width="4.01" height="135.76" transform="translate(36.1 927.88) rotate(-66.04)"/></g><path class="cls-13" d="M479.06,998.59H657.82A53,53,0,0,1,695,1013.72V933.46a71,71,0,0,0-71-71h-111a71,71,0,0,0-71,71v80.25A53,53,0,0,1,479.06,998.59Z"/><path class="cls-13" d="M441.92,933.46a71,71,0,0,1,70.19-71v0H381.86a79.83,79.83,0,0,0,60.07,77.33Z"/><path class="cls-14" d="M512.11,862.49v0H470.5a82.76,82.76,0,0,0-40.31,71v2.34a79.17,79.17,0,0,0,11.73,4v-6.34A71,71,0,0,1,512.11,862.49Z"/><path class="cls-13" d="M624,862.47a71,71,0,0,1,71,71v6a79.82,79.82,0,0,0,58.89-77H624Z"/><path class="cls-15" d="M649.17,840.84c-.6-9.93-8.62-16.4-14.83-14.48s-9.5,8.56-9.2,14.89a45.84,45.84,0,0,1-3.77,21.21h25.58A67,67,0,0,0,649.17,840.84Z"/><path class="cls-15" d="M487.71,840.84c.6-9.93,8.62-16.4,14.83-14.48s9.5,8.56,9.2,14.89a45.84,45.84,0,0,0,3.77,21.21H489.94A67,67,0,0,1,487.71,840.84Z"/><path class="cls-14" d="M695,933.46v6a79.25,79.25,0,0,0,11.73-4.2v-1.81a82.76,82.76,0,0,0-40.31-71H624A71,71,0,0,1,695,933.46Z"/><path class="cls-14" d="M657.82,986.86H479.06a64.55,64.55,0,0,0-37.14,11.72v15.14a53,53,0,0,1,37.14-15.13H657.82A53,53,0,0,1,695,1013.72V998.57A64.55,64.55,0,0,0,657.82,986.86Z"/><circle class="cls-15" cx="593.92" cy="948.13" r="19.11"/><circle class="cls-15" cx="542.96" cy="948.13" r="19.11"/><path class="cls-16" d="M657.82,998.59H631.58a27,27,0,0,0-52.69,0H558a27,27,0,0,0-52.69,0H479.06a53.2,53.2,0,0,0-53.2,53.2v35.6a53.2,53.2,0,0,0,53.2,53.2H657.82a53.2,53.2,0,0,0,53.2-53.2v-35.6A53.2,53.2,0,0,0,657.82,998.59Z"/><circle class="cls-17" cx="605.57" cy="1004.46" r="9.39"/><circle class="cls-17" cx="627.02" cy="1075.83" r="28.16"/><circle class="cls-17" cx="531.64" cy="1004.46" r="9.39"/><path class="cls-18" d="M488.14,853.37a67.09,67.09,0,0,0,1.79,9.09h25.58a45.74,45.74,0,0,1-2.88-9.09Z"/><path class="cls-18" d="M624.25,853.37a45.74,45.74,0,0,1-2.88,9.09h25.58a67.09,67.09,0,0,0,1.79-9.09Z"/><path id="_Path_16" data-name="&lt;Path&gt;" class="cls-8" d="M907.17,676.51H1426.8v609.15a40.86,40.86,0,0,1-40.86,40.86H948a40.86,40.86,0,0,1-40.86-40.86Z"/><path id="_Path_17" data-name="&lt;Path&gt;" class="cls-7" d="M1358.59,1261.13a40.51,40.51,0,0,0,40.46-40.46V1001.52H934.92v219.16a40.51,40.51,0,0,0,40.46,40.46Z"/><path id="_Path_18" data-name="&lt;Path&gt;" class="cls-19" d="M1399.06,1220.67a40.17,40.17,0,0,1-1.26,9.85,40.28,40.28,0,0,1-14.89,2.87H951.07a40.28,40.28,0,0,1-14.89-2.87,40.16,40.16,0,0,1-1.26-9.85V1001.52h464.14Z"/><path id="_Path_19" data-name="&lt;Path&gt;" class="cls-9" d="M934.92,1220.67v-41.78h464.14v41.78a40.17,40.17,0,0,1-1.26,9.85,40.28,40.28,0,0,1-14.89,2.87H951.07a40.28,40.28,0,0,1-14.89-2.87A40.17,40.17,0,0,1,934.92,1220.67Z"/><rect id="_Path_20" data-name="&lt;Path&gt;" class="cls-7" x="934.92" y="704.26" width="464.14" height="297.26"/><g class="cls-20"><rect id="_Path_21" data-name="&lt;Path&gt;" class="cls-21" x="1234.9" y="1001.52" width="94.8" height="259.62"/></g><g class="cls-22"><rect id="_Path_22" data-name="&lt;Path&gt;" class="cls-21" x="1174.78" y="1001.52" width="30.07" height="259.62"/></g><rect id="_Path_23" data-name="&lt;Path&gt;" class="cls-14" x="1234.9" y="704.26" width="94.8" height="297.26"/><rect id="_Path_24" data-name="&lt;Path&gt;" class="cls-14" x="1174.78" y="704.26" width="30.07" height="297.26"/><g id="_Group_3" data-name="&lt;Group&gt;"><path id="_Path_25" data-name="&lt;Path&gt;" class="cls-23" d="M946,1301.77h442a11.57,11.57,0,0,0,0-23.12H946a11.57,11.57,0,0,0,0,23.12Z"/></g><circle class="cls-19" cx="1227.92" cy="540.98" r="29.11"/><circle class="cls-19" cx="1145.67" cy="450.81" r="14.24"/><circle class="cls-19" cx="1181.23" cy="155.31" r="7.75"/><circle class="cls-19" cx="1233" cy="341.47" r="21.24"/></g><g id="TEXT"><text class="cls-24" transform="translate(417.16 657.29)">MILK.</text></g></svg>