<?xml version="1.0" encoding="UTF-8" standalone="no"?>
<svg
   xmlns:dc="http://purl.org/dc/elements/1.1/"
   xmlns:cc="http://creativecommons.org/ns#"
   xmlns:rdf="http://www.w3.org/1999/02/22-rdf-syntax-ns#"
   xmlns:svg="http://www.w3.org/2000/svg"
   xmlns="http://www.w3.org/2000/svg"
   xmlns:sodipodi="http://sodipodi.sourceforge.net/DTD/sodipodi-0.dtd"
   xmlns:inkscape="http://www.inkscape.org/namespaces/inkscape"
   sodipodi:docname="runtime-language-services.svg"
   inkscape:version="1.0 (4035a4fb49, 2020-05-01)"
   id="svg622"
   version="1.1"
   viewBox="0 0 248.62013 99.130554"
   height="99.130554mm"
   width="248.62013mm">
  <defs
     id="defs616">
    <clipPath
       id="clip0">
      <rect
         x="169"
         y="220"
         width="940"
         height="375"
         id="rect1487" />
    </clipPath>
    <linearGradient
       x1="610.28497"
       y1="158.63"
       x2="666.71503"
       y2="418.37"
       gradientUnits="userSpaceOnUse"
       spreadMethod="reflect"
       id="fill1">
      <stop
         offset="0"
         stop-color="#FAFAFA"
         id="stop1490" />
      <stop
         offset="0.33"
         stop-color="#FFFFFF"
         id="stop1492" />
      <stop
         offset="0.54"
         stop-color="#FFFFFF"
         id="stop1494" />
      <stop
         offset="1"
         stop-color="#E4E4E4"
         id="stop1496" />
    </linearGradient>
    <clipPath
       id="clip2">
      <rect
         x="827"
         y="230"
         width="90"
         height="90"
         id="rect1499" />
    </clipPath>
    <clipPath
       id="clip3">
      <rect
         x="827"
         y="230"
         width="90"
         height="90"
         id="rect1502" />
    </clipPath>
    <clipPath
       id="clip4">
      <rect
         x="827"
         y="230"
         width="90"
         height="90"
         id="rect1505" />
    </clipPath>
    <clipPath
       id="clip5">
      <rect
         x="845"
         y="241"
         width="52"
         height="58"
         id="rect1508" />
    </clipPath>
    <clipPath
       id="clip6">
      <rect
         x="845"
         y="241"
         width="52"
         height="58"
         id="rect1511" />
    </clipPath>
    <clipPath
       id="clip7">
      <rect
         x="845"
         y="241"
         width="52"
         height="58"
         id="rect1514" />
    </clipPath>
    <clipPath
       id="clip8">
      <rect
         x="734"
         y="229"
         width="90"
         height="90"
         id="rect1517" />
    </clipPath>
    <clipPath
       id="clip9">
      <rect
         x="734"
         y="229"
         width="90"
         height="90"
         id="rect1520" />
    </clipPath>
    <clipPath
       id="clip10">
      <rect
         x="734"
         y="229"
         width="90"
         height="90"
         id="rect1523" />
    </clipPath>
    <clipPath
       id="clip11">
      <rect
         x="756"
         y="245"
         width="47"
         height="47"
         id="rect1526" />
    </clipPath>
    <clipPath
       id="clip12">
      <rect
         x="756"
         y="245"
         width="47"
         height="47"
         id="rect1529" />
    </clipPath>
    <clipPath
       id="clip13">
      <rect
         x="756"
         y="245"
         width="47"
         height="47"
         id="rect1532" />
    </clipPath>
    <clipPath
       id="clip14">
      <rect
         x="640"
         y="230"
         width="90"
         height="90"
         id="rect1535" />
    </clipPath>
    <clipPath
       id="clip15">
      <rect
         x="640"
         y="230"
         width="90"
         height="90"
         id="rect1538" />
    </clipPath>
    <clipPath
       id="clip16">
      <rect
         x="640"
         y="230"
         width="90"
         height="90"
         id="rect1541" />
    </clipPath>
    <clipPath
       id="clip17">
      <rect
         x="666"
         y="232"
         width="38"
         height="70"
         id="rect1544" />
    </clipPath>
    <clipPath
       id="clip18">
      <rect
         x="666"
         y="232"
         width="38"
         height="70"
         id="rect1547" />
    </clipPath>
    <clipPath
       id="clip19">
      <rect
         x="666"
         y="232"
         width="38"
         height="70"
         id="rect1550" />
    </clipPath>
    <clipPath
       id="clip20">
      <rect
         x="547"
         y="230"
         width="90"
         height="90"
         id="rect1553" />
    </clipPath>
    <clipPath
       id="clip21">
      <rect
         x="547"
         y="230"
         width="90"
         height="90"
         id="rect1556" />
    </clipPath>
    <clipPath
       id="clip22">
      <rect
         x="547"
         y="230"
         width="90"
         height="90"
         id="rect1559" />
    </clipPath>
    <clipPath
       id="clip23">
      <rect
         x="565"
         y="244"
         width="53"
         height="53"
         id="rect1562" />
    </clipPath>
    <clipPath
       id="clip24">
      <rect
         x="565"
         y="244"
         width="53"
         height="53"
         id="rect1565" />
    </clipPath>
    <clipPath
       id="clip25">
      <rect
         x="565"
         y="244"
         width="53"
         height="53"
         id="rect1568" />
    </clipPath>
    <clipPath
       id="clip26">
      <rect
         x="454"
         y="231"
         width="89"
         height="90"
         id="rect1571" />
    </clipPath>
    <clipPath
       id="clip27">
      <rect
         x="454"
         y="231"
         width="89"
         height="90"
         id="rect1574" />
    </clipPath>
    <clipPath
       id="clip28">
      <rect
         x="454"
         y="231"
         width="89"
         height="90"
         id="rect1577" />
    </clipPath>
    <clipPath
       id="clip29">
      <rect
         x="473"
         y="242"
         width="51"
         height="52"
         id="rect1580" />
    </clipPath>
    <clipPath
       id="clip30">
      <rect
         x="473"
         y="242"
         width="51"
         height="52"
         id="rect1583" />
    </clipPath>
    <clipPath
       id="clip31">
      <rect
         x="473"
         y="242"
         width="51"
         height="52"
         id="rect1586" />
    </clipPath>
    <linearGradient
       x1="25.754601"
       y1="35.732601"
       x2="51.069099"
       y2="61.131802"
       gradientUnits="userSpaceOnUse"
       spreadMethod="pad"
       id="fill32">
      <stop
         offset="0"
         stop-color="#387EB8"
         id="stop1589" />
      <stop
         offset="1"
         stop-color="#366994"
         id="stop1591" />
    </linearGradient>
    <linearGradient
       x1="41.327"
       y1="51.890598"
       x2="68.514801"
       y2="77.937698"
       gradientUnits="userSpaceOnUse"
       spreadMethod="pad"
       id="fill33">
      <stop
         offset="0"
         stop-color="#FFE052"
         id="stop1594" />
      <stop
         offset="1"
         stop-color="#FFC331"
         id="stop1596" />
    </linearGradient>
    <clipPath
       id="clip34">
      <rect
         x="360"
         y="232"
         width="89"
         height="90"
         id="rect1599" />
    </clipPath>
    <clipPath
       id="clip35">
      <rect
         x="360"
         y="232"
         width="89"
         height="90"
         id="rect1602" />
    </clipPath>
    <clipPath
       id="clip36">
      <rect
         x="360"
         y="232"
         width="89"
         height="90"
         id="rect1605" />
    </clipPath>
    <clipPath
       id="clip37">
      <rect
         x="360"
         y="231"
         width="79"
         height="69"
         id="rect1608" />
    </clipPath>
    <clipPath
       id="clip38">
      <rect
         x="360"
         y="231"
         width="79"
         height="69"
         id="rect1611" />
    </clipPath>
    <clipPath
       id="clip39">
      <rect
         x="360"
         y="231"
         width="79"
         height="69"
         id="rect1614" />
    </clipPath>
    <linearGradient
       x1="639"
       y1="458.5"
       x2="639"
       y2="594.5"
       gradientUnits="userSpaceOnUse"
       spreadMethod="reflect"
       id="fill40">
      <stop
         offset="0"
         stop-color="#FFFFFF"
         id="stop1617" />
      <stop
         offset="0.33"
         stop-color="#FFFFFF"
         id="stop1619" />
      <stop
         offset="0.54"
         stop-color="#FFFFFF"
         id="stop1621" />
      <stop
         offset="1"
         stop-color="#E4E4E4"
         id="stop1623" />
    </linearGradient>
  </defs>
  <sodipodi:namedview
     inkscape:window-maximized="0"
     inkscape:window-y="141"
     inkscape:window-x="1024"
     inkscape:window-height="1198"
     inkscape:window-width="2182"
     showgrid="false"
     inkscape:document-rotation="0"
     inkscape:current-layer="layer1"
     inkscape:document-units="mm"
     inkscape:cy="140.31105"
     inkscape:cx="530.15101"
     inkscape:zoom="0.98994949"
     inkscape:pageshadow="2"
     inkscape:pageopacity="0.0"
     borderopacity="1.0"
     bordercolor="#666666"
     pagecolor="#ffffff"
     id="base" />
  <metadata
     id="metadata619">
    <rdf:RDF>
      <cc:Work
         rdf:about="">
        <dc:format>image/svg+xml</dc:format>
        <dc:type
           rdf:resource="http://purl.org/dc/dcmitype/StillImage" />
        <dc:title></dc:title>
      </cc:Work>
    </rdf:RDF>
  </metadata>
  <g
     transform="translate(102.38745,-210.86032)"
     id="layer1"
     inkscape:groupmode="layer"
     inkscape:label="Layer 1">
    <g
       clip-path="url(#clip0)"
       transform="matrix(0.26458333,0,0,0.26458333,-147.14613,152.60789)"
       id="g1864">
      <rect
         x="469.5"
         y="420.5"
         width="149"
         height="38"
         stroke="#000000"
         stroke-width="0.666667"
         stroke-miterlimit="8"
         fill="#ffffff"
         id="rect1628" />
      <text
         font-family="Calibri, Calibri_MSFontService, sans-serif"
         font-weight="400"
         font-size="24px"
         transform="translate(499.141,447)"
         id="text1630">HTTP API</text>
      <rect
         x="665.5"
         y="420.5"
         width="149"
         height="38"
         stroke="#000000"
         stroke-width="0.666667"
         stroke-miterlimit="8"
         fill="#ffffff"
         id="rect1632" />
      <text
         font-family="Calibri, Calibri_MSFontService, sans-serif"
         font-weight="400"
         font-size="24px"
         transform="translate(696.168,447)"
         id="text1636">gRPC<tspan
   font-size="24px"
   x="55"
   y="0"
   id="tspan1634">API</tspan></text>
      <rect
         style="fill:url(#fill1)"
         x="325.5"
         y="220.5"
         width="626"
         height="136"
         stroke="#000000"
         stroke-width="0.666667"
         stroke-miterlimit="8"
         fill="url(#fill1)"
         id="rect1638" />
      <g
         clip-path="url(#clip2)"
         id="g1646">
        <g
           clip-path="url(#clip3)"
           id="g1644">
          <g
             clip-path="url(#clip4)"
             id="g1642">
            <path
               d="M 8.1243,44.9379 C 7.227,44.4375 7.2621,45.1278 7.245,26.8119 c 0,-9.9 0.0693,-18.126 0.1728,-19.575 0.9486,-13.4865 6.7608,-25.8696 16.4709,-35.1486 2.673,-2.5524 4.3632,-3.8286 13.0212,-9.8649 6.381,-4.4667 7.5888,-5.2434 8.1063,-5.2434 0.5175,0 1.7766,0.828 8.1918,5.2947 4.1742,2.9151 8.4159,5.967 9.4338,6.7608 9.9513,7.9164 16.8498,19.4193 19.1952,32.0094 0.828,4.5189 0.828,4.3461 0.8964,24.0246 0.0513,14.2281 0.0171,18.7299 -0.1377,19.1097 -0.4482,1.0692 2.2941,0.9999 -37.6146,0.9999 C 15.057,45.162 8.469,45.1269 8.1243,44.9379 Z M 79.6284,24.1038 C 79.5762,6.4953 79.5591,6.0642 79.1973,3.7008 78.732,0.7866 78.0246,-2.214 77.1795,-4.8186 c -3.1041,-9.6237 -9.3996,-18.4536 -17.4186,-24.4899 -0.8451,-0.6381 -4.5189,-3.2427 -8.1576,-5.76 l -6.588,-4.6053 -6.8643,4.7772 c -9.3996,6.5367 -11.331,8.0883 -14.5908,11.7108 -7.002,7.7436 -11.1591,16.6599 -12.8142,27.4734 -0.2412,1.5867 -0.2934,4.2768 -0.3447,19.8162 L 10.332,42.075 h 34.6833 34.6824 z"
               transform="matrix(1,0,0,-1,827,276.08)"
               id="path1640" />
          </g>
        </g>
      </g>
      <g
         clip-path="url(#clip5)"
         id="g1664">
        <g
           clip-path="url(#clip6)"
           id="g1662">
          <g
             clip-path="url(#clip7)"
             id="g1660">
            <path
               d="M 51.4636,17.06 C 51.4632,16.0873 51.2552,15.2279 50.8345,14.4903 50.4213,13.765 49.8025,13.157 48.9725,12.6764 42.1209,8.72571 35.2627,4.78714 28.4133,0.832458 26.5668,-0.233588 24.7764,-0.194724 22.9436,0.886627 20.2164,2.49496 6.56261,10.3175 2.49395,12.6741 0.818363,13.6441 0.00302053,15.1286 0.00261779,17.0581 0,25.0032 0.00261779,32.948 0,40.8932 c 4.02738e-4,0.9512 0.199556,1.794 0.60169,2.5205 0.41341,0.7473 1.04087,1.3719 1.89005,1.8635 4.06885,2.3566 17.72446,10.1785 20.45096,11.7873 1.8337,1.0819 3.6241,1.1206 5.4712,0.0541 6.8496,-3.9548 13.7082,-7.8932 20.5608,-11.8439 0.8492,-0.4913 1.4766,-1.1163 1.89,-1.863 0.4016,-0.7266 0.6011,-1.5693 0.6015,-2.5208 0,0 0,-15.8857 -0.0026,-23.8309"
               fill="#5c8dbc"
               transform="matrix(1.00872,0,0,1,845,241)"
               id="path1648" />
            <path
               d="M 25.8118,28.8982 0.60169,43.4137 c 0.41341,0.7473 1.04087,1.3719 1.89005,1.8635 4.06885,2.3566 17.72446,10.1785 20.45096,11.7873 1.8337,1.0819 3.6241,1.1206 5.4712,0.0541 6.8496,-3.9548 13.7082,-7.8932 20.5608,-11.8439 0.8492,-0.4913 1.4766,-1.1163 1.89,-1.863 L 25.8118,28.8982"
               fill="#1a4674"
               transform="matrix(1.00872,0,0,1,845,241)"
               id="path1650" />
            <path
               d="m 18.3449,33.1979 c 1.467,2.561 4.2247,4.2883 7.3882,4.2883 3.1831,0 5.9565,-1.7493 7.416,-4.3377 l -7.3373,-4.2503 -7.4669,4.2997"
               fill="#1a4674"
               transform="matrix(1.00872,0,0,1,845,241)"
               id="path1652" />
            <path
               d="m 51.4636,17.06 c -4e-4,-0.9727 -0.2084,-1.8321 -0.6291,-2.5697 L 25.8118,28.8982 50.8647,43.4117 c 0.4016,-0.7266 0.6011,-1.5693 0.6015,-2.5208 0,0 0,-15.8857 -0.0026,-23.8309"
               fill="#1b598e"
               transform="matrix(1.00872,0,0,1,845,241)"
               id="path1654" />
            <path
               d="m 50.086,29.9357 h -1.9577 v 1.9581 h -1.9581 v -1.9581 h -1.9575 v -1.9575 h 1.9575 v -1.9577 h 1.9581 v 1.9577 h 1.9577 v 1.9575 m -7.1435,0 H 40.985 v 1.9581 h -1.9577 v -1.9581 h -1.9577 v -1.9575 h 1.9577 v -1.9577 h 1.9577 v 1.9577 h 1.9575 v 1.9575"
               fill="#ffffff"
               transform="matrix(1.00872,0,0,1,845,241)"
               id="path1656" />
            <path
               d="m 33.1491,33.1485 c -1.4595,2.5884 -4.2329,4.3377 -7.416,4.3377 -3.1635,0 -5.9212,-1.7273 -7.3882,-4.2883 -0.737,-1.2852 -1.124,-2.7411 -1.1224,-4.2223 0,-4.7002 3.8105,-8.5105 8.5106,-8.5105 3.1432,0 5.8864,1.7058 7.3606,4.2406 l 7.4388,-4.2835 c -2.9567,-5.1039 -8.4768,-8.5376 -14.7994,-8.5376 -9.4393,0 -17.09116,7.652 -17.09116,17.091 0,3.0966 0.8238,6.0005 2.26356,8.5054 2.9493,5.1308 8.4851,8.5857 14.8276,8.5857 6.3542,0 11.8987,-3.4688 14.8437,-8.6147 l -7.4277,-4.3035"
               fill="#ffffff"
               transform="matrix(1.00872,0,0,1,845,241)"
               id="path1658" />
          </g>
        </g>
      </g>
      <g
         clip-path="url(#clip8)"
         id="g1672">
        <g
           clip-path="url(#clip9)"
           id="g1670">
          <g
             clip-path="url(#clip10)"
             id="g1668">
            <path
               d="M 8.1243,44.9379 C 7.227,44.4375 7.2621,45.1278 7.245,26.8119 c 0,-9.9 0.0693,-18.126 0.1728,-19.575 0.9486,-13.4865 6.7608,-25.8696 16.4709,-35.1486 2.673,-2.5524 4.3632,-3.8286 13.0212,-9.8649 6.381,-4.4667 7.5888,-5.2434 8.1063,-5.2434 0.5175,0 1.7766,0.828 8.1918,5.2947 4.1742,2.9151 8.4159,5.967 9.4338,6.7608 9.9513,7.9164 16.8498,19.4193 19.1952,32.0094 0.828,4.5189 0.828,4.3461 0.8964,24.0246 0.0513,14.2281 0.0171,18.7299 -0.1377,19.1097 -0.4482,1.0692 2.2941,0.9999 -37.6146,0.9999 C 15.057,45.162 8.469,45.1269 8.1243,44.9379 Z M 79.6284,24.1038 C 79.5762,6.4953 79.5591,6.0642 79.1973,3.7008 78.732,0.7866 78.0246,-2.214 77.1795,-4.8186 c -3.1041,-9.6237 -9.3996,-18.4536 -17.4186,-24.4899 -0.8451,-0.6381 -4.5189,-3.2427 -8.1576,-5.76 l -6.588,-4.6053 -6.8643,4.7772 c -9.3996,6.5367 -11.331,8.0883 -14.5908,11.7108 -7.002,7.7436 -11.1591,16.6599 -12.8142,27.4734 -0.2412,1.5867 -0.2934,4.2768 -0.3447,19.8162 L 10.332,42.075 h 34.6833 34.6824 z"
               transform="matrix(1,0,0,-1,734,275.08)"
               id="path1666" />
          </g>
        </g>
      </g>
      <g
         clip-path="url(#clip11)"
         id="g1682">
        <g
           clip-path="url(#clip12)"
           id="g1680">
          <g
             clip-path="url(#clip13)"
             id="g1678">
            <path
               d="m 756,245 h 47 v 47 h -47 z"
               fill="#f7df1e"
               id="path1674" />
            <path
               d="m 768.358,284.277 3.597,-2.177 c 0.694,1.23 1.325,2.271 2.839,2.271 1.451,0 2.366,-0.568 2.366,-2.776 v -15.017 h 4.417 v 15.08 c 0,4.574 -2.681,6.657 -6.594,6.657 -3.533,0 -5.584,-1.83 -6.625,-4.039 m 15.618,-0.473 3.596,-2.082 c 0.947,1.546 2.178,2.682 4.354,2.682 1.831,0 2.998,-0.915 2.998,-2.177 0,-1.514 -1.199,-2.051 -3.218,-2.934 l -1.104,-0.474 c -3.187,-1.356 -5.301,-3.06 -5.301,-6.656 0,-3.313 2.524,-5.837 6.468,-5.837 2.808,0 4.827,0.978 6.278,3.534 l -3.439,2.208 c -0.757,-1.356 -1.577,-1.893 -2.839,-1.893 -1.294,0 -2.114,0.821 -2.114,1.893 0,1.325 0.82,1.862 2.713,2.682 l 1.104,0.473 c 3.755,1.609 5.868,3.25 5.868,6.941 0,3.975 -3.123,6.152 -7.319,6.152 -4.101,0 -6.752,-1.956 -8.045,-4.512"
               id="path1676" />
          </g>
        </g>
      </g>
      <g
         clip-path="url(#clip14)"
         id="g1690">
        <g
           clip-path="url(#clip15)"
           id="g1688">
          <g
             clip-path="url(#clip16)"
             id="g1686">
            <path
               d="M 8.1243,44.9379 C 7.227,44.4375 7.2621,45.1278 7.245,26.8119 c 0,-9.9 0.0693,-18.126 0.1728,-19.575 0.9486,-13.4865 6.7608,-25.8696 16.4709,-35.1486 2.673,-2.5524 4.3632,-3.8286 13.0212,-9.8649 6.381,-4.4667 7.5888,-5.2434 8.1063,-5.2434 0.5175,0 1.7766,0.828 8.1918,5.2947 4.1742,2.9151 8.4159,5.967 9.4338,6.7608 9.9513,7.9164 16.8498,19.4193 19.1952,32.0094 0.828,4.5189 0.828,4.3461 0.8964,24.0246 0.0513,14.2281 0.0171,18.7299 -0.1377,19.1097 -0.4482,1.0692 2.2941,0.9999 -37.6146,0.9999 C 15.057,45.162 8.469,45.1269 8.1243,44.9379 Z M 79.6284,24.1038 C 79.5762,6.4953 79.5591,6.0642 79.1973,3.7008 78.732,0.7866 78.0246,-2.214 77.1795,-4.8186 c -3.1041,-9.6237 -9.3996,-18.4536 -17.4186,-24.4899 -0.8451,-0.6381 -4.5189,-3.2427 -8.1576,-5.76 l -6.588,-4.6053 -6.8643,4.7772 c -9.3996,6.5367 -11.331,8.0883 -14.5908,11.7108 -7.002,7.7436 -11.1591,16.6599 -12.8142,27.4734 -0.2412,1.5867 -0.2934,4.2768 -0.3447,19.8162 L 10.332,42.075 h 34.6833 34.6824 z"
               transform="matrix(1,0,0,-1,640,276.08)"
               id="path1684" />
          </g>
        </g>
      </g>
      <g
         clip-path="url(#clip17)"
         id="g1722">
        <g
           clip-path="url(#clip18)"
           id="g1720">
          <g
             clip-path="url(#clip19)"
             id="g1718">
            <path
               d="m 36.029,54.4591 h -0.2575 v -0.144 h 0.6932 v 0.144 H 36.209 v 0.7188 h -0.18 z m 1.3828,0.0376 h -0.0041 l -0.2551,0.6814 h -0.1168 l -0.2535,-0.6814 h -0.0032 v 0.6814 h -0.1696 v -0.8629 h 0.2496 l 0.2351,0.611 0.2343,-0.611 h 0.2487 v 0.8629 h -0.1656 v -0.6814 z"
               fill="#5382a1"
               transform="matrix(1,0,0,1.00713,666.044,232)"
               id="path1692" />
            <path
               d="m 12.9759,36.815 c 0,0 -1.7917,1.042 1.2751,1.3945 3.7154,0.4239 5.6142,0.3631 9.7085,-0.4118 0,0 1.0764,0.6749 2.5798,1.2595 C 17.3609,42.9909 5.76683,38.8294 12.9759,36.815"
               fill="#5382a1"
               transform="matrix(1,0,0,1.00713,666.044,232)"
               id="path1694" />
            <path
               d="m 11.8544,31.6818 c 0,0 -2.00956,1.4875 1.0595,1.805 3.9688,0.4094 7.1031,0.4429 12.5266,-0.6014 0,0 0.7501,0.7605 1.9297,1.1764 -11.0972,3.2449 -23.45749,0.2559 -15.5158,-2.38"
               fill="#5382a1"
               transform="matrix(1,0,0,1.00713,666.044,232)"
               id="path1696" />
            <path
               d="m 21.3094,22.9742 c 2.2615,2.6038 -0.5942,4.9468 -0.5942,4.9468 0,0 5.7424,-2.9644 3.1052,-6.6766 -2.4631,-3.4618 -4.352,-5.1818 5.8736,-11.1123 0,0 -16.0508,4.0087 -8.3846,12.8421"
               fill="#f8981d"
               transform="matrix(1,0,0,1.00713,666.044,232)"
               id="path1698" />
            <path
               d="m 33.4485,40.6119 c 0,0 1.3259,1.0924 -1.4602,1.9376 -5.2979,1.6049 -22.05033,2.0896 -26.70408,0.064 -1.6729,-0.7278 1.46427,-1.7378 2.4511,-1.9497 1.02917,-0.2232 1.6173,-0.1816 1.6173,-0.1816 C 7.49218,39.1716 -2.6725,43.0556 4.18947,44.1679 22.903,47.2028 38.3025,42.8014 33.4485,40.6119"
               fill="#5382a1"
               transform="matrix(1,0,0,1.00713,666.044,232)"
               id="path1700" />
            <path
               d="m 13.8375,26.3632 c 0,0 -8.52131,2.024 -3.0176,2.759 2.3239,0.3111 6.9564,0.2407 11.2715,-0.1208 3.5265,-0.2975 7.0675,-0.93 7.0675,-0.93 0,0 -1.2435,0.5325 -2.1431,1.1468 C 18.3625,31.494 1.64599,30.4353 6.45846,28.1074 10.5284,26.1401 13.8375,26.3632 13.8375,26.3632"
               fill="#5382a1"
               transform="matrix(1,0,0,1.00713,666.044,232)"
               id="path1702" />
            <path
               d="m 29.1238,34.9077 c 8.7965,-4.571 4.7293,-8.9636 1.8905,-8.3719 -0.6958,0.1449 -1.006,0.2704 -1.006,0.2704 0,0 0.2583,-0.4047 0.7516,-0.5798 5.6161,-1.9745 9.9352,5.8233 -1.8129,8.9117 0,10e-5 0.1361,-0.1216 0.1768,-0.2304"
               fill="#5382a1"
               transform="matrix(1,0,0,1.00713,666.044,232)"
               id="path1704" />
            <path
               d="m 23.8204,0.555908 c 0,0 4.8716,4.873262 -4.6205,12.366992 -7.6118,6.0112 -1.7357,9.4386 -0.0032,13.3546 C 14.7536,22.2688 11.493,18.7399 13.6805,15.4555 16.8912,10.6343 25.786,8.29679 23.8204,0.555908"
               fill="#f8981d"
               transform="matrix(1,0,0,1.00713,666.044,232)"
               id="path1706" />
            <path
               d="m 14.7019,47.294 c 8.4435,0.5405 21.4095,-0.2999 21.7166,-4.2951 0,0 -0.5903,1.5145 -6.9781,2.7173 -7.2067,1.3563 -16.0952,1.1979 -21.36704,0.3287 1.3e-4,-10e-5 1.07922,0.8932 6.62854,1.2491"
               fill="#5382a1"
               transform="matrix(1,0,0,1.00713,666.044,232)"
               id="path1708" />
            <path
               d="m 13.3182,62.5599 c -0.7966,0.6909 -1.6378,1.0787 -2.3928,1.0787 -1.07753,0 -1.65972,-0.6461 -1.65972,-1.6825 0,-1.121 0.62377,-1.9407 3.12632,-1.9407 h 0.926 v 2.5445 m 2.198,2.4798 v -7.6761 c 0,-1.9609 -1.1184,-3.2548 -3.8149,-3.2548 -1.5742,0 -2.95317,0.3887 -4.07395,0.8845 l 0.32351,1.3587 c 0.88245,-0.3238 2.02472,-0.6254 3.14584,-0.6254 1.5534,0 2.2217,0.6254 2.2217,1.9185 v 0.9701 h -0.7753 c -3.77411,0 -5.47659,1.4651 -5.47659,3.664 0,1.8978 1.12193,2.9765 3.23439,2.9765 1.3578,0 2.3714,-0.5606 3.319,-1.381 l 0.172,1.1651 h 1.7243 z"
               fill="#5382a1"
               transform="matrix(1,0,0,1.00713,666.044,232)"
               id="path1710" />
            <path
               d="M 22.8511,65.0397 H 20.1099 L 16.8108,54.3032 h 2.3939 l 2.0471,6.5966 0.455,1.9839 c 1.0356,-2.8684 1.7681,-5.7785 2.1344,-8.5805 h 2.3287 c -0.6239,3.5355 -1.7466,7.4161 -3.3188,10.7365"
               fill="#5382a1"
               transform="matrix(1,0,0,1.00713,666.044,232)"
               id="path1712" />
            <path
               d="m 33.3669,62.5599 c -0.7981,0.6909 -1.6409,1.0787 -2.3958,1.0787 -1.0757,0 -1.6594,-0.6461 -1.6594,-1.6825 0,-1.121 0.6253,-1.9407 3.1276,-1.9407 h 0.9276 v 2.5445 m 2.1976,2.4798 v -7.6761 c 0,-1.9609 -1.1212,-3.2548 -3.8146,-3.2548 -1.5753,0 -2.9548,0.3887 -4.0751,0.8845 l 0.323,1.3587 c 0.8829,-0.3238 2.0273,-0.6254 3.1476,-0.6254 1.5522,0 2.2215,0.6254 2.2215,1.9185 v 0.9701 h -0.7766 c -3.7752,0 -5.4769,1.4651 -5.4769,3.664 0,1.8978 1.121,2.9765 3.2331,2.9765 1.3586,0 2.3718,-0.5606 3.321,-1.381 l 0.1726,1.1651 h 1.7244 z"
               fill="#5382a1"
               transform="matrix(1,0,0,1.00713,666.044,232)"
               id="path1714" />
            <path
               d="M 4.65641,66.863 C 4.02986,67.7778 3.01788,68.5015 1.90998,68.911 L 0.824826,67.634 C 1.6681,67.2013 2.39133,66.5024 2.72735,65.8515 3.018,65.2726 3.13831,64.5265 3.13831,62.7423 V 50.4849 H 5.4734 v 12.0894 c -1.3e-4,2.3854 -0.19082,3.349 -0.81699,4.2887"
               fill="#5382a1"
               transform="matrix(1,0,0,1.00713,666.044,232)"
               id="path1716" />
          </g>
        </g>
      </g>
      <g
         clip-path="url(#clip20)"
         id="g1730">
        <g
           clip-path="url(#clip21)"
           id="g1728">
          <g
             clip-path="url(#clip22)"
             id="g1726">
            <path
               d="M 8.1243,44.9379 C 7.227,44.4375 7.2621,45.1278 7.245,26.8119 c 0,-9.9 0.0693,-18.126 0.1728,-19.575 0.9486,-13.4865 6.7608,-25.8696 16.4709,-35.1486 2.673,-2.5524 4.3632,-3.8286 13.0212,-9.8649 6.381,-4.4667 7.5888,-5.2434 8.1063,-5.2434 0.5175,0 1.7766,0.828 8.1918,5.2947 4.1742,2.9151 8.4159,5.967 9.4338,6.7608 9.9513,7.9164 16.8498,19.4193 19.1952,32.0094 0.828,4.5189 0.828,4.3461 0.8964,24.0246 0.0513,14.2281 0.0171,18.7299 -0.1377,19.1097 -0.4482,1.0692 2.2941,0.9999 -37.6146,0.9999 C 15.057,45.162 8.469,45.1269 8.1243,44.9379 Z M 79.6284,24.1038 C 79.5762,6.4953 79.5591,6.0642 79.1973,3.7008 78.732,0.7866 78.0246,-2.214 77.1795,-4.8186 c -3.1041,-9.6237 -9.3996,-18.4536 -17.4186,-24.4899 -0.8451,-0.6381 -4.5189,-3.2427 -8.1576,-5.76 l -6.588,-4.6053 -6.8643,4.7772 c -9.3996,6.5367 -11.331,8.0883 -14.5908,11.7108 -7.002,7.7436 -11.1591,16.6599 -12.8142,27.4734 -0.2412,1.5867 -0.2934,4.2768 -0.3447,19.8162 L 10.332,42.075 h 34.6833 34.6824 z"
               transform="matrix(1,0,0,-1,547,276.08)"
               id="path1724" />
          </g>
        </g>
      </g>
      <g
         clip-path="url(#clip23)"
         id="g1756">
        <g
           clip-path="url(#clip24)"
           id="g1754">
          <g
             clip-path="url(#clip25)"
             id="g1752">
            <path
               d="m 618,270.5 c 0,14.636 -11.864,26.5 -26.5,26.5 -14.636,0 -26.5,-11.864 -26.5,-26.5 0,-14.636 11.864,-26.5 26.5,-26.5 14.636,0 26.5,11.864 26.5,26.5 z"
               fill="#5c2d91"
               id="path1732" />
            <path
               d="m 573.132,251.453 c -10.926,9.737 -11.891,26.488 -2.154,37.415 9.737,10.926 26.488,11.891 37.415,2.154 0.758,-0.676 1.478,-1.395 2.154,-2.154 z"
               fill="#ffffff"
               fill-opacity="0.1"
               id="path1734" />
            <path
               d="m 571.128,274.848 c -0.312,0.005 -0.613,-0.122 -0.828,-0.348 -0.221,-0.219 -0.344,-0.518 -0.34,-0.828 -0.002,-0.311 0.121,-0.609 0.34,-0.828 0.213,-0.231 0.514,-0.36 0.828,-0.357 0.313,0 0.613,0.129 0.828,0.357 0.224,0.217 0.349,0.516 0.348,0.828 0.003,0.312 -0.123,0.611 -0.348,0.828 -0.217,0.224 -0.516,0.35 -0.828,0.348 z"
               fill="#ffffff"
               id="path1736" />
            <path
               d="m 587.583,274.641 h -2.17 L 577.654,262.6 c -0.194,-0.297 -0.355,-0.613 -0.481,-0.944 h -0.066 c 0.074,0.687 0.102,1.379 0.083,2.07 v 10.915 h -1.764 v -15.097 h 2.294 l 7.553,11.826 c 0.314,0.491 0.519,0.828 0.612,1.01 h 0.042 c -0.088,-0.737 -0.124,-1.478 -0.108,-2.22 v -10.616 h 1.764 z"
               fill="#ffffff"
               id="path1738" />
            <path
               d="M 599.525,274.641 H 591.5 v -15.097 h 7.652 v 1.598 h -5.847 v 5.019 h 5.449 v 1.59 h -5.449 v 5.233 h 6.228 z"
               fill="#ffffff"
               id="path1740" />
            <path
               d="m 611.375,261.142 h -4.389 v 13.499 h -1.764 v -13.499 h -4.339 v -1.598 h 10.492 z"
               fill="#ffffff"
               id="path1742" />
            <path
               d="m 586.631,284.909 c -0.598,0.29 -1.258,0.429 -1.922,0.406 -0.892,0.04 -1.759,-0.307 -2.376,-0.952 -0.609,-0.681 -0.929,-1.572 -0.895,-2.485 -0.045,-0.998 0.317,-1.972 1.002,-2.699 0.669,-0.685 1.594,-1.058 2.551,-1.027 0.566,-0.019 1.13,0.079 1.656,0.29 v 0.828 c -0.506,-0.281 -1.077,-0.423 -1.656,-0.414 -0.738,-0.021 -1.449,0.281 -1.946,0.828 -0.517,0.588 -0.784,1.355 -0.745,2.136 -0.039,0.741 0.21,1.468 0.695,2.029 0.471,0.507 1.14,0.782 1.83,0.754 0.636,0.017 1.264,-0.144 1.814,-0.464 z"
               fill="#f2f2f2"
               id="path1744" />
            <path
               d="m 590.018,285.315 c -0.667,0.022 -1.311,-0.247 -1.764,-0.737 -0.453,-0.505 -0.688,-1.169 -0.654,-1.847 -0.042,-0.717 0.205,-1.421 0.687,-1.954 0.492,-0.48 1.16,-0.735 1.847,-0.704 0.649,-0.034 1.281,0.217 1.73,0.687 0.441,0.531 0.663,1.209 0.621,1.897 0.035,0.698 -0.206,1.382 -0.67,1.905 -0.462,0.499 -1.118,0.774 -1.797,0.753 z m 0.058,-4.53 c -0.462,-0.019 -0.907,0.173 -1.209,0.522 -0.319,0.41 -0.478,0.922 -0.448,1.441 -0.028,0.503 0.131,0.999 0.448,1.391 0.305,0.344 0.749,0.533 1.209,0.514 0.45,0.026 0.887,-0.157 1.184,-0.497 0.301,-0.412 0.448,-0.916 0.414,-1.425 0.033,-0.511 -0.114,-1.017 -0.414,-1.432 -0.293,-0.347 -0.731,-0.537 -1.184,-0.514 z"
               fill="#f2f2f2"
               id="path1746" />
            <path
               d="m 596.353,281.034 c -0.179,-0.117 -0.391,-0.173 -0.605,-0.158 -0.339,0.013 -0.649,0.193 -0.828,0.481 -0.246,0.39 -0.365,0.847 -0.339,1.308 v 2.534 h -0.828 v -4.969 h 0.828 v 1.036 0 c 0.091,-0.321 0.272,-0.608 0.521,-0.828 0.216,-0.188 0.493,-0.291 0.779,-0.29 0.16,-0.008 0.32,0.015 0.472,0.066 z"
               fill="#f2f2f2"
               id="path1748" />
            <path
               d="m 601.206,282.922 h -3.503 c -0.024,0.463 0.127,0.918 0.422,1.275 0.31,0.31 0.738,0.472 1.176,0.447 0.561,-0.005 1.104,-0.201 1.54,-0.554 v 0.745 c -0.512,0.337 -1.118,0.503 -1.731,0.472 -0.625,0.031 -1.232,-0.218 -1.656,-0.679 -0.431,-0.538 -0.646,-1.217 -0.604,-1.905 -0.03,-0.69 0.204,-1.365 0.654,-1.888 0.415,-0.479 1.023,-0.747 1.656,-0.729 0.572,-0.032 1.128,0.2 1.507,0.63 0.382,0.502 0.57,1.125 0.53,1.755 z m -0.828,-0.671 c 0.016,-0.384 -0.101,-0.761 -0.332,-1.068 -0.229,-0.26 -0.565,-0.4 -0.911,-0.381 -0.36,-0.005 -0.706,0.143 -0.952,0.406 -0.273,0.288 -0.444,0.657 -0.489,1.051 z"
               fill="#f2f2f2"
               id="path1750" />
          </g>
        </g>
      </g>
      <g
         clip-path="url(#clip26)"
         id="g1764">
        <g
           clip-path="url(#clip27)"
           id="g1762">
          <g
             clip-path="url(#clip28)"
             id="g1760">
            <path
               d="M 8.03403,44.4386 C 7.1467,43.9437 7.18141,44.6264 7.1645,26.514 7.1645,16.724 7.23303,8.58939 7.33538,7.15649 8.27344,-6.18016 14.0211,-18.4257 23.6233,-27.6016 c 2.6433,-2.524 4.3147,-3.786 12.8765,-9.7553 6.3101,-4.417 7.5045,-5.1851 8.0162,-5.1851 0.5118,0 1.7569,0.8188 8.1008,5.2359 4.1278,2.8827 8.3224,5.9007 9.329,6.6857 9.8407,7.8284 16.6626,19.2035 18.9819,31.65369 0.8188,4.46869 0.8188,4.29781 0.8864,23.75761 0.0508,14.0701 0.0169,18.5218 -0.1361,18.8974 -0.4433,1.0573 2.2686,0.9888 -37.1967,0.9888 C 14.8897,44.6602 8.3749,44.6255 8.03403,44.4386 Z M 78.7436,23.836 C 78.692,6.42313 78.6751,5.99682 78.3173,3.65968 77.8572,0.77786 77.1577,-2.1894 76.3219,-4.76506 73.2523,-14.2818 67.0268,-23.0136 59.0969,-28.9828 c -0.8357,-0.6311 -4.4687,-3.2067 -8.067,-5.696 l -6.5148,-4.5542 -6.788,4.7241 C 28.4319,-28.0448 26.522,-26.5104 23.2984,-22.9282 16.3742,-15.2706 12.2633,-6.45339 10.6266,4.23996 10.3881,5.80903 10.3365,8.46924 10.2857,23.836 l -0.0685,17.7715 h 34.2979 34.2971 z"
               transform="matrix(1,0,0,-1.01124,454,277.08)"
               id="path1758" />
          </g>
        </g>
      </g>
      <g
         clip-path="url(#clip29)"
         id="g1774">
        <g
           clip-path="url(#clip30)"
           id="g1772">
          <g
             clip-path="url(#clip31)"
             id="g1770">
            <path
               style="fill:url(#fill32)"
               d="m 46.2477,31.281 c -12.9965,0 -12.1849,5.636 -12.1849,5.636 l 0.0145,5.839 h 12.4022 v 1.7531 H 29.1511 c 0,0 -8.3164,-0.9432 -8.3164,12.1704 0,13.1135 7.2588,12.6485 7.2588,12.6485 h 4.3321 v -6.0852 c 0,0 -0.2336,-7.2587 7.1429,-7.2587 7.3765,0 12.3008,0 12.3008,0 0,0 6.911,0.1117 6.911,-6.6792 0,-6.7911 0,-11.2288 0,-11.2288 0,0 1.0492,-6.7951 -12.5326,-6.7951 z m -6.8386,3.9264 c 1.2339,0 2.2312,0.9973 2.2312,2.2312 0,1.234 -0.9973,2.2313 -2.2312,2.2313 -1.2339,0 -2.2313,-0.9973 -2.2313,-2.2313 0,-1.2339 0.9974,-2.2312 2.2313,-2.2312 z"
               fill="url(#fill32)"
               transform="matrix(1,0,0,1.01961,452.165,210.106)"
               id="path1766" />
            <path
               style="fill:url(#fill33)"
               d="m 46.6168,82.2097 c 12.9966,0 12.1848,-5.636 12.1848,-5.636 l -0.0144,-5.839 H 46.385 v -1.753 h 17.3284 c 0,0 8.3167,0.943 8.3167,-12.1705 0,-13.1138 -7.2592,-12.6488 -7.2592,-12.6488 h -4.3317 v 6.0851 c 0,0 0.2332,7.2592 -7.1433,7.2592 -7.3762,0 -12.3007,0 -12.3007,0 0,0 -6.9111,-0.1118 -6.9111,6.6791 0,6.7909 0,11.2288 0,11.2288 0,0 -1.0492,6.7951 12.5327,6.7951 z m 6.8386,-3.9266 c -1.2337,0 -2.231,-0.9972 -2.231,-2.231 0,-1.2342 0.9973,-2.2315 2.231,-2.2315 1.2342,0 2.2315,0.9973 2.2315,2.2315 0,1.2338 -0.9973,2.231 -2.2315,2.231 z"
               fill="url(#fill33)"
               transform="matrix(1,0,0,1.01961,452.165,210.106)"
               id="path1768" />
          </g>
        </g>
      </g>
      <g
         clip-path="url(#clip34)"
         id="g1782">
        <g
           clip-path="url(#clip35)"
           id="g1780">
          <g
             clip-path="url(#clip36)"
             id="g1778">
            <path
               d="M 8.03403,44.4386 C 7.1467,43.9437 7.18141,44.6264 7.1645,26.514 7.1645,16.724 7.23303,8.58939 7.33538,7.15649 8.27344,-6.18016 14.0211,-18.4257 23.6233,-27.6016 c 2.6433,-2.524 4.3147,-3.786 12.8765,-9.7553 6.3101,-4.417 7.5045,-5.1851 8.0162,-5.1851 0.5118,0 1.7569,0.8188 8.1008,5.2359 4.1278,2.8827 8.3224,5.9007 9.329,6.6857 9.8407,7.8284 16.6626,19.2035 18.9819,31.65369 0.8188,4.46869 0.8188,4.29781 0.8864,23.75761 0.0508,14.0701 0.0169,18.5218 -0.1361,18.8974 -0.4433,1.0573 2.2686,0.9888 -37.1967,0.9888 C 14.8897,44.6602 8.3749,44.6255 8.03403,44.4386 Z M 78.7436,23.836 C 78.692,6.42313 78.6751,5.99682 78.3173,3.65968 77.8572,0.77786 77.1577,-2.1894 76.3219,-4.76506 73.2523,-14.2818 67.0268,-23.0136 59.0969,-28.9828 c -0.8357,-0.6311 -4.4687,-3.2067 -8.067,-5.696 l -6.5148,-4.5542 -6.788,4.7241 C 28.4319,-28.0448 26.522,-26.5104 23.2984,-22.9282 16.3742,-15.2706 12.2633,-6.45339 10.6266,4.23996 10.3881,5.80903 10.3365,8.46924 10.2857,23.836 l -0.0685,17.7715 h 34.2979 34.2971 z"
               stroke="#70ad47"
               stroke-width="0.00890053"
               transform="matrix(1,0,0,-1.01124,360,278.08)"
               id="path1776" />
          </g>
        </g>
      </g>
      <g
         clip-path="url(#clip37)"
         id="g1798">
        <g
           clip-path="url(#clip38)"
           id="g1796">
          <g
             clip-path="url(#clip39)"
             id="g1794">
            <path
               d="m 12.328,31.004 c -0.1227,0 -0.1533,-0.0613 -0.092,-0.1533 l 0.644,-0.828 c 0.0613,-0.092 0.2147,-0.1534 0.3373,-0.1534 h 10.948 c 0.1227,0 0.1534,0.092 0.092,0.184 l -0.5213,0.7974 c -0.0613,0.092 -0.2147,0.184 -0.3067,0.184 z"
               fill="#2dbcaf"
               transform="matrix(1.01023,0,0,1,360.077,231)"
               id="path1784" />
            <path
               d="m 7.69733,33.8253 c -0.12266,0 -0.15333,-0.0613 -0.092,-0.1533 l 0.644,-0.828 C 8.31067,32.752 8.464,32.6907 8.58667,32.6907 H 22.5707 c 0.1226,0 0.184,0.092 0.1533,0.184 l -0.2453,0.736 c -0.0307,0.1226 -0.1534,0.184 -0.276,0.184 z"
               fill="#2dbcaf"
               transform="matrix(1.01023,0,0,1,360.077,231)"
               id="path1786" />
            <path
               d="m 15.1187,36.6467 c -0.1227,0 -0.1534,-0.092 -0.092,-0.184 L 15.456,35.696 c 0.0613,-0.092 0.184,-0.184 0.3067,-0.184 h 6.1333 c 0.1227,0 0.184,0.092 0.184,0.2147 l -0.0613,0.736 c 0,0.1226 -0.1227,0.2146 -0.2147,0.2146 z"
               fill="#2dbcaf"
               transform="matrix(1.01023,0,0,1,360.077,231)"
               id="path1788" />
            <path
               d="m 46.9507,30.452 c -1.932,0.4907 -3.2507,0.8587 -5.152,1.3493 -0.46,0.1227 -0.4907,0.1534 -0.8894,-0.3066 -0.46,-0.5214 -0.7973,-0.8587 -1.4413,-1.1654 -1.932,-0.9506 -3.8027,-0.6746 -5.5507,0.46 -2.0853,1.3494 -3.1586,3.3427 -3.128,5.8267 0.0307,2.4533 1.7174,4.4773 4.14,4.8147 2.0854,0.276 3.8334,-0.46 5.2134,-2.024 0.276,-0.3374 0.5213,-0.7054 0.828,-1.1347 -1.104,0 -2.484,0 -5.9187,0 -0.644,0 -0.7973,-0.3987 -0.5827,-0.92 0.3987,-0.9507 1.1347,-2.5453 1.564,-3.3427 0.092,-0.184 0.3067,-0.4906 0.7667,-0.4906 1.564,0 7.3293,0 11.1627,0 -0.0614,0.828 -0.0614,1.656 -0.184,2.484 -0.3374,2.208 -1.1654,4.232 -2.5147,6.0106 -2.208,2.9134 -5.0907,4.7227 -8.74,5.2134 -3.0053,0.3986 -5.796,-0.184 -8.2493,-2.024 -2.2694,-1.7174 -3.5574,-3.9867 -3.8947,-6.808 -0.3987,-3.3427 0.5827,-6.348 2.6067,-8.9854 2.1773,-2.852 5.06,-4.6613 8.5866,-5.3053 2.8827,-0.5213 5.6427,-0.184 8.1267,1.5027 1.6253,1.0733 2.7907,2.5453 3.5573,4.324 0.184,0.276 0.0614,0.4293 -0.3066,0.5213 z"
               fill="#2dbcaf"
               transform="matrix(1.01023,0,0,1,360.077,231)"
               id="path1790" />
            <path
               d="m 57.1013,47.4107 c -2.7906,-0.0614 -5.336,-0.8587 -7.4826,-2.6987 -1.8094,-1.564 -2.944,-3.5573 -3.312,-5.9187 -0.552,-3.4653 0.3986,-6.532 2.484,-9.2613 2.2386,-2.944 4.9373,-4.4773 8.5866,-5.1213 3.128,-0.552 6.072,-0.2454 8.74,1.564 2.4227,1.656 3.9254,3.8946 4.324,6.8386 0.5214,4.14 -0.6746,7.5134 -3.5266,10.396 -2.024,2.0547 -4.508,3.3427 -7.36,3.9254 -0.828,0.1533 -1.656,0.184 -2.4534,0.276 z M 64.4,35.0213 c -0.0307,-0.3986 -0.0307,-0.7053 -0.092,-1.012 -0.552,-3.036 -3.3427,-4.7533 -6.256,-4.0786 -2.852,0.644 -4.692,2.4533 -5.3667,5.336 -0.552,2.392 0.6134,4.8146 2.8214,5.796 1.6866,0.736 3.3733,0.644 4.9986,-0.184 2.4227,-1.2574 3.7414,-3.22 3.8947,-5.8574 z"
               fill="#2dbcaf"
               transform="matrix(1.01023,0,0,1,360.077,231)"
               id="path1792" />
          </g>
        </g>
      </g>
      <rect
         style="fill:url(#fill40)"
         x="169.5"
         y="458.5"
         width="939"
         height="136"
         stroke="#000000"
         stroke-width="0.666667"
         stroke-miterlimit="8"
         fill="url(#fill40)"
         id="rect1800" />
      <rect
         x="195.5"
         y="476.5"
         width="100"
         height="100"
         stroke="#2f528f"
         stroke-width="1.33333"
         stroke-miterlimit="8"
         fill="#dae3f3"
         id="rect1802" />
      <text
         font-family="Calibri, Calibri_MSFontService, sans-serif"
         font-weight="400"
         font-size="16px"
         transform="translate(209.902,512)"
         id="text1814">Service<tspan
   font-size="16px"
   x="46.646702"
   y="0"
   id="tspan1804">-</tspan><tspan
   font-size="16px"
   x="51.48"
   y="0"
   id="tspan1806">to</tspan><tspan
   font-size="16px"
   x="65.160004"
   y="0"
   id="tspan1808">-</tspan><tspan
   font-size="16px"
   x="12.1733"
   y="19"
   id="tspan1810">service</tspan><tspan
   font-size="16px"
   x="1.1733201"
   y="38"
   id="tspan1812">Invocation</tspan></text>
      <rect
         x="308.5"
         y="476.5"
         width="99"
         height="100"
         stroke="#2f528f"
         stroke-width="1.33333"
         stroke-miterlimit="8"
         fill="#dae3f3"
         id="rect1816" />
      <text
         font-family="Calibri, Calibri_MSFontService, sans-serif"
         font-weight="400"
         font-size="15px"
         transform="translate(342.22,522)"
         id="text1820">State <tspan
   font-size="15px"
   x="-24.58"
   y="17"
   id="tspan1818">Management</tspan></text>
      <rect
         x="420.5"
         y="476.5"
         width="100"
         height="100"
         stroke="#2f528f"
         stroke-width="1.33333"
         stroke-miterlimit="8"
         fill="#dae3f3"
         id="rect1822" />
      <text
         font-family="Calibri, Calibri_MSFontService, sans-serif"
         font-weight="400"
         font-size="15px"
         transform="translate(435.964,522)"
         id="text1826">Publish and <tspan
   font-size="15px"
   x="5.5799899"
   y="17"
   id="tspan1824">Subscribe</tspan></text>
      <rect
         x="533.5"
         y="476.5"
         width="100"
         height="100"
         stroke="#2f528f"
         stroke-width="1.33333"
         stroke-miterlimit="8"
         fill="#dae3f3"
         id="rect1828" />
      <text
         font-family="Calibri, Calibri_MSFontService, sans-serif"
         font-weight="400"
         font-size="15px"
         transform="translate(557.787,531)"
         id="text1830">Bindings</text>
      <rect
         x="646.5"
         y="476.5"
         width="99"
         height="100"
         stroke="#2f528f"
         stroke-width="1.33333"
         stroke-miterlimit="8"
         fill="#dae3f3"
         id="rect1832" />
      <text
         font-family="Calibri, Calibri_MSFontService, sans-serif"
         font-weight="400"
         font-size="15px"
         transform="translate(676.515,531)"
         id="text1834">Actors</text>
      <rect
         x="758.5"
         y="476.5"
         width="100"
         height="100"
         stroke="#2f528f"
         stroke-width="1.33333"
         stroke-miterlimit="8"
         fill="#dae3f3"
         id="rect1836" />
      <text
         font-family="Calibri, Calibri_MSFontService, sans-serif"
         font-weight="400"
         font-size="15px"
         transform="translate(768.992,531)"
         id="text1838">Observability</text>
      <rect
         x="871.5"
         y="476.5"
         width="100"
         height="100"
         stroke="#2f528f"
         stroke-width="1.33333"
         stroke-miterlimit="8"
         fill="#dae3f3"
         id="rect1840" />
      <text
         font-family="Calibri, Calibri_MSFontService, sans-serif"
         font-weight="400"
         font-size="15px"
         transform="translate(899.219,531)"
         id="text1842">Secrets</text>
      <rect
         x="984.5"
         y="476.5"
         width="98.999901"
         height="100"
         stroke="#2f528f"
         stroke-width="1.33333"
         stroke-miterlimit="8"
         fill="#dae3f3"
         id="rect1844" />
      <text
         font-family="Calibri, Calibri_MSFontService, sans-serif"
         font-weight="400"
         font-size="15px"
         transform="translate(997.697,531)"
         id="text1858">Extensibility<tspan
   font-size="15px"
   x="-605.05103"
   y="-191"
   id="tspan1846">SDK</tspan><tspan
   font-size="15px"
   x="-534.38702"
   y="-194"
   id="tspan1848">SDK + Actor</tspan><tspan
   font-size="15px"
   x="-441.18201"
   y="-194"
   id="tspan1850">SDK + Actor</tspan><tspan
   font-size="15px"
   x="-345.216"
   y="-194"
   id="tspan1852">SDK + Actor</tspan><tspan
   font-size="15px"
   x="-233.55701"
   y="-193"
   id="tspan1854">SDK</tspan><tspan
   font-size="15px"
   x="-138.259"
   y="-193"
   id="tspan1856">SDK</tspan></text>
      <path
         d="m 638.627,356.5 v 32.646 H 543.5 l 0.333,-0.333 v 25.646 h -0.666 V 388.48 h 95.127 l -0.333,0.333 V 356.5 Z m -91.127,56.626 -4,8 -4,-8 z"
         id="path1860" />
      <path
         d="M 0,-0.333333 H 32.6461 V 101.486 l -0.3333,-0.333 h 25.646 v 0.666 H 31.9794 V 0 l 0.3334,0.333333 H 0 Z m 56.6255,97.819433 8,3.9999 -8,4 z"
         transform="matrix(0,1,1,0,638.5,356.5)"
         id="path1862" />
    </g>
  </g>
</svg>
